<?xml version="1.0" encoding="utf-8"?>
<!-- Generator: Adobe Illustrator 21.0.0, SVG Export Plug-In . SVG Version: 6.00 Build 0)  -->
<svg version="1.1" baseProfile="basic" id="Layer_1" xmlns:v="https://vecta.io/nano"
	 xmlns="http://www.w3.org/2000/svg" xmlns:xlink="http://www.w3.org/1999/xlink" x="0px" y="0px" viewBox="0 0 64 64"
	 xml:space="preserve">
<style type="text/css">
	.st0{fill:#E9EAEB;}
	.st1{fill:#BDC2C4;}
	.st2{clip-path:url(#SVGID_2_);}
	.st3{fill:url(#SVGID_3_);}
	.st4{fill:url(#SVGID_4_);}
	.st5{fill:none;stroke:url(#SVGID_5_);stroke-width:0.15;stroke-linecap:round;stroke-miterlimit:10;}
	.st6{fill:none;stroke:url(#SVGID_6_);stroke-width:0.15;stroke-linecap:round;stroke-miterlimit:10;}
	.st7{fill:none;stroke:url(#SVGID_7_);stroke-width:0.15;stroke-linecap:round;stroke-miterlimit:10;}
	.st8{fill:none;stroke:url(#SVGID_8_);stroke-width:0.15;stroke-linecap:round;stroke-miterlimit:10;}
	.st9{fill:none;stroke:url(#SVGID_9_);stroke-width:0.15;stroke-linecap:round;stroke-miterlimit:10;}
	.st10{fill:none;stroke:url(#SVGID_10_);stroke-width:0.15;stroke-linecap:round;stroke-miterlimit:10;}
	.st11{fill:none;stroke:url(#SVGID_11_);stroke-width:0.15;stroke-linecap:round;stroke-miterlimit:10;}
	.st12{fill:none;stroke:url(#SVGID_12_);stroke-width:0.15;stroke-linecap:round;stroke-miterlimit:10;}
	.st13{fill:none;stroke:url(#SVGID_13_);stroke-width:0.15;stroke-linecap:round;stroke-miterlimit:10;}
	.st14{fill:none;stroke:url(#SVGID_14_);stroke-width:0.15;stroke-linecap:round;stroke-miterlimit:10;}
	.st15{fill:none;stroke:url(#SVGID_15_);stroke-width:0.15;stroke-linecap:round;stroke-miterlimit:10;}
	.st16{fill:none;stroke:url(#SVGID_16_);stroke-width:0.15;stroke-linecap:round;stroke-miterlimit:10;}
	.st17{fill:none;stroke:url(#SVGID_17_);stroke-width:0.15;stroke-linecap:round;stroke-miterlimit:10;}
	.st18{fill:none;stroke:url(#SVGID_18_);stroke-width:0.15;stroke-linecap:round;stroke-miterlimit:10;}
	.st19{fill:none;stroke:url(#SVGID_19_);stroke-width:0.15;stroke-linecap:round;stroke-miterlimit:10;}
	.st20{fill:none;stroke:url(#SVGID_20_);stroke-width:0.15;stroke-linecap:round;stroke-miterlimit:10;}
	.st21{fill:none;stroke:url(#SVGID_21_);stroke-width:0.15;stroke-linecap:round;stroke-miterlimit:10;}
	.st22{fill:none;stroke:url(#SVGID_22_);stroke-width:0.15;stroke-linecap:round;stroke-miterlimit:10;}
	.st23{fill:url(#SVGID_23_);}
	.st24{fill:#1D1D1D;}
	.st25{fill:url(#SVGID_24_);}
	.st26{fill:#F9F9F9;}
	.st27{fill:url(#SVGID_25_);}
	.st28{fill:url(#SVGID_26_);}
	.st29{fill:none;stroke:url(#SVGID_27_);stroke-width:0.15;stroke-linecap:round;stroke-miterlimit:10;}
	.st30{fill:none;stroke:url(#SVGID_28_);stroke-width:0.15;stroke-linecap:round;stroke-miterlimit:10;}
	.st31{fill:none;stroke:url(#SVGID_29_);stroke-width:0.15;stroke-linecap:round;stroke-miterlimit:10;}
	.st32{fill:none;stroke:url(#SVGID_30_);stroke-width:0.15;stroke-linecap:round;stroke-miterlimit:10;}
	.st33{fill:url(#SVGID_31_);}
	.st34{fill:url(#SVGID_32_);}
</style>
<path class="st0" d="M64,32c0,17.7-14.3,32-32,32S0,49.7,0,32S14.3,0,32,0S64,14.3,64,32z"/>
<path class="st1" d="M30.2,23.1v-0.6c0-0.8,0.2-1.5,0.5-2.1c0.4-0.6,0.8-1.1,1.4-1.7c0.5-0.5,1-0.9,1.6-1.4c0.5-0.4,1-0.8,1.3-1.2
	c0.3-0.4,0.5-0.9,0.5-1.5c0-0.8-0.3-1.4-0.9-1.7c-0.6-0.4-1.5-0.5-2.9-0.5c-0.9,0-1.8,0.1-2.6,0.3c-0.9,0.2-1.6,0.5-2.2,0.8V9.2
	c0.8-0.4,1.7-0.7,2.8-0.9C30.8,8.1,32,8,33.2,8c2.4,0,4.3,0.5,5.6,1.6c1.3,1.1,1.9,2.5,1.9,4.4c0,1.2-0.2,2.1-0.7,2.9
	c-0.5,0.7-1.2,1.5-2.1,2.2l-2,1.7c-0.5,0.5-0.8,1.1-0.8,1.9v0.4L30.2,23.1L30.2,23.1z M30,28.7V25h5.3v3.7
	C35.4,28.7,30,28.7,30,28.7z"/>
<path class="st1" d="M64,33l-2-0.1l0-0.9l0-0.9l2-0.1l0,1L64,33z M63.9,29.1l-2,0.2l-0.2-1.8l2-0.3L63.9,29.1z M63.3,25.3l-2,0.4
	l-0.4-1.8l1.9-0.5L63.3,25.3L63.3,25.3z M62.3,21.6l-1.9,0.7l-0.6-1.7l1.8-0.8L62.3,21.6L62.3,21.6z M60.8,18L59,18.9l-0.8-1.6
	l1.7-1L60.8,18L60.8,18z M58.9,14.6l-1.7,1.1l-1-1.5l1.6-1.2L58.9,14.6L58.9,14.6z M56.6,11.5L55,12.8l-1.2-1.4l1.5-1.4L56.6,11.5
	L56.6,11.5z M53.9,8.7l-1.4,1.5L51.2,9l1.3-1.5L53.9,8.7z M51,6.2l-1.2,1.6l-1.5-1l1.1-1.7L51,6.2L51,6.2z M47.7,4.1l-1,1.7L45.1,5
	L46,3.2L47.7,4.1L47.7,4.1z M44.3,2.4l-0.8,1.8l-1.7-0.6l0.7-1.9L44.3,2.4z M40.6,1.2l-0.5,1.9l-1.8-0.4l0.4-2L40.6,1.2L40.6,1.2z
	 M36.8,0.4l-0.3,2l-1.8-0.2l0.2-2L36.8,0.4L36.8,0.4z M33,0l-1,0l-1,0l0.1,2L32,2l0.9,0C32.9,2,33,0,33,0z M29.1,0.1l0.2,2l-1.8,0.2
	l-0.3-2C27.2,0.4,29.1,0.1,29.1,0.1z M25.3,0.7l0.4,2l-1.8,0.4l-0.5-1.9L25.3,0.7L25.3,0.7z M21.6,1.7l0.7,1.9l-1.7,0.6l-0.8-1.8
	C19.8,2.4,21.6,1.7,21.6,1.7z M18,3.2L18.9,5l-1.6,0.8l-1-1.7L18,3.2L18,3.2z M14.6,5.1l1.1,1.7l-1.5,1L13,6.2L14.6,5.1L14.6,5.1z
	 M11.5,7.4L12.8,9l-1.4,1.2l-1.4-1.5L11.5,7.4L11.5,7.4z M8.7,10.1l1.5,1.4L9,12.8l-1.5-1.3L8.7,10.1z M6.2,13l1.6,1.2l-1,1.5
	l-1.7-1.1L6.2,13L6.2,13z M4.1,16.3l1.7,1L5,18.9L3.2,18L4.1,16.3L4.1,16.3z M2.4,19.8l1.8,0.8l-0.6,1.7l-1.9-0.7
	C1.7,21.6,2.4,19.8,2.4,19.8z M1.2,23.4l1.9,0.5l-0.4,1.8l-2-0.4L1.2,23.4L1.2,23.4z M0.4,27.2l2,0.3l-0.2,1.8l-2-0.2
	C0.1,29.1,0.4,27.2,0.4,27.2z M0,31l0,1l0,1l2-0.1L2,32l0-0.9C2,31.1,0,31,0,31z M0.1,34.9l2-0.2l0.2,1.8l-2,0.3L0.1,34.9L0.1,34.9z
	 M0.7,38.7l2-0.4l0.4,1.8l-1.9,0.5L0.7,38.7L0.7,38.7z M1.7,42.4l1.9-0.7l0.6,1.7l-1.8,0.8C2.4,44.2,1.7,42.4,1.7,42.4z M3.2,46
	L5,45.1l0.8,1.6l-1.7,1L3.2,46L3.2,46z M5.1,49.4l1.7-1.1l1,1.5L6.2,51L5.1,49.4L5.1,49.4z M7.4,52.5L9,51.2l1.2,1.4l-1.5,1.4
	L7.4,52.5L7.4,52.5z M10.1,55.3l1.4-1.5l1.4,1.2l-1.3,1.5L10.1,55.3L10.1,55.3z M13,57.8l1.2-1.6l1.5,1l-1.1,1.7L13,57.8L13,57.8z
	 M16.3,59.9l1-1.7l1.6,0.8L18,60.8L16.3,59.9L16.3,59.9z M19.8,61.6l0.8-1.8l1.7,0.6l-0.7,1.9L19.8,61.6L19.8,61.6z M23.4,62.8
	l0.5-1.9l1.8,0.4l-0.4,2L23.4,62.8L23.4,62.8z M27.2,63.6l0.3-2l1.8,0.2l-0.2,2L27.2,63.6z M31,64l0.1-2l0.9,0l0.9,0l0.1,2l-1,0
	C31.7,64,31.4,64,31,64L31,64z M34.9,63.9l-0.2-2l1.8-0.2l0.3,2L34.9,63.9L34.9,63.9z M38.7,63.3l-0.4-2l1.8-0.4l0.5,1.9L38.7,63.3
	L38.7,63.3z M42.4,62.3l-0.7-1.9l1.7-0.6l0.8,1.8L42.4,62.3L42.4,62.3z M46,60.8L45.1,59l1.6-0.8l1,1.7L46,60.8L46,60.8z M49.4,58.9
	l-1.1-1.7l1.5-1l1.2,1.6L49.4,58.9L49.4,58.9z M52.5,56.6L51.2,55l1.4-1.2l1.4,1.5L52.5,56.6L52.5,56.6z M55.3,53.9l-1.5-1.4
	l1.2-1.4l1.5,1.3L55.3,53.9L55.3,53.9z M57.8,51l-1.6-1.2l1-1.5l1.7,1.1L57.8,51L57.8,51z M59.9,47.7l-1.7-1l0.8-1.6l1.8,0.9
	L59.9,47.7L59.9,47.7z M61.6,44.2l-1.8-0.8l0.6-1.7l1.9,0.7L61.6,44.2L61.6,44.2z M62.8,40.6l-1.9-0.5l0.4-1.8l2,0.4L62.8,40.6
	L62.8,40.6z M63.6,36.8l-2-0.3l0.2-1.8l2,0.2L63.6,36.8L63.6,36.8z"/>
<g>
	<defs>
		<rect id="SVGID_1_" x="6.6" y="33.2" width="50.5" height="17"/>
	</defs>
	<clipPath id="SVGID_2_">
		<use xlink:href="#SVGID_1_"  style="overflow:visible;"/>
	</clipPath>
	<g class="st2">
		
			<linearGradient id="SVGID_3_" gradientUnits="userSpaceOnUse" x1="43.0508" y1="128.3602" x2="28.1334" y2="128.3602" gradientTransform="matrix(0.9993 -3.855612e-02 -2.338771e-02 -0.6061 -1.1829 127.669)">
			<stop  offset="0" style="stop-color:#E6E7E8"/>
			<stop  offset="1" style="stop-color:#808285"/>
		</linearGradient>
		<path class="st3" d="M25.7,47.8c0,0,6.6,3.7,12.7-0.1C38.4,47.7,33.4,51.1,25.7,47.8z"/>
		
			<linearGradient id="SVGID_4_" gradientUnits="userSpaceOnUse" x1="30.0193" y1="128.2355" x2="42.8307" y2="128.2355" gradientTransform="matrix(0.9993 -3.855612e-02 -2.338771e-02 -0.6061 -1.1829 127.669)">
			<stop  offset="0" style="stop-color:#808285"/>
			<stop  offset="0.1683" style="stop-color:#86888B"/>
			<stop  offset="0.3872" style="stop-color:#96989A"/>
			<stop  offset="0.634" style="stop-color:#B1B2B4"/>
			<stop  offset="0.8994" style="stop-color:#D6D7D8"/>
			<stop  offset="1" style="stop-color:#E6E7E8"/>
		</linearGradient>
		<path class="st4" d="M25.8,47.8c0,0,6.1,3.9,12.8-0.2C38.6,47.7,33.1,51.3,25.8,47.8z"/>
		<g>
			<linearGradient id="SVGID_5_" gradientUnits="userSpaceOnUse" x1="19.3182" y1="42.9549" x2="26.3983" y2="42.9549">
				<stop  offset="0" style="stop-color:#808285"/>
				<stop  offset="1" style="stop-color:#D1D3D4"/>
			</linearGradient>
			<line class="st5" x1="26.3" y1="43" x2="19.4" y2="43"/>
			<linearGradient id="SVGID_6_" gradientUnits="userSpaceOnUse" x1="21.1452" y1="43.3203" x2="26.1211" y2="43.3203">
				<stop  offset="0" style="stop-color:#808285"/>
				<stop  offset="1" style="stop-color:#D1D3D4"/>
			</linearGradient>
			<line class="st6" x1="26" y1="43.3" x2="21.2" y2="43.3"/>
			<linearGradient id="SVGID_7_" gradientUnits="userSpaceOnUse" x1="22.3422" y1="41.0042" x2="26.5586" y2="41.0042">
				<stop  offset="0" style="stop-color:#808285"/>
				<stop  offset="1" style="stop-color:#D1D3D4"/>
			</linearGradient>
			<line class="st7" x1="26.5" y1="41" x2="22.4" y2="41"/>
			<linearGradient id="SVGID_8_" gradientUnits="userSpaceOnUse" x1="21.5358" y1="41.2974" x2="25.9934" y2="41.2974">
				<stop  offset="0" style="stop-color:#808285"/>
				<stop  offset="1" style="stop-color:#D1D3D4"/>
			</linearGradient>
			<line class="st8" x1="25.9" y1="41.3" x2="21.6" y2="41.3"/>
			<linearGradient id="SVGID_9_" gradientUnits="userSpaceOnUse" x1="20.301" y1="41.5808" x2="25.8737" y2="41.5808">
				<stop  offset="0" style="stop-color:#808285"/>
				<stop  offset="1" style="stop-color:#D1D3D4"/>
			</linearGradient>
			<line class="st9" x1="25.8" y1="41.6" x2="20.4" y2="41.6"/>
			<linearGradient id="SVGID_10_" gradientUnits="userSpaceOnUse" x1="21.9642" y1="41.8739" x2="25.5587" y2="41.8739">
				<stop  offset="0" style="stop-color:#808285"/>
				<stop  offset="1" style="stop-color:#D1D3D4"/>
			</linearGradient>
			<line class="st10" x1="25.5" y1="41.9" x2="22" y2="41.9"/>
		</g>
		<g>
			<linearGradient id="SVGID_11_" gradientUnits="userSpaceOnUse" x1="37.7083" y1="41.0768" x2="40.6693" y2="41.0768">
				<stop  offset="0" style="stop-color:#808285"/>
				<stop  offset="1" style="stop-color:#D1D3D4"/>
			</linearGradient>
			<line class="st11" x1="37.8" y1="41.1" x2="40.6" y2="41.1"/>
			<linearGradient id="SVGID_12_" gradientUnits="userSpaceOnUse" x1="37.374" y1="40.3208" x2="44.2152" y2="40.3208">
				<stop  offset="0" style="stop-color:#808285"/>
				<stop  offset="1" style="stop-color:#D1D3D4"/>
			</linearGradient>
			<line class="st12" x1="37.4" y1="40.3" x2="44.1" y2="40.3"/>
			<linearGradient id="SVGID_13_" gradientUnits="userSpaceOnUse" x1="36.8452" y1="39.8678" x2="42.6024" y2="39.8678">
				<stop  offset="0" style="stop-color:#808285"/>
				<stop  offset="1" style="stop-color:#D1D3D4"/>
			</linearGradient>
			<line class="st13" x1="36.9" y1="39.9" x2="42.5" y2="39.9"/>
			<linearGradient id="SVGID_14_" gradientUnits="userSpaceOnUse" x1="37.4248" y1="40.6824" x2="43.1694" y2="40.6824">
				<stop  offset="0" style="stop-color:#808285"/>
				<stop  offset="1" style="stop-color:#D1D3D4"/>
			</linearGradient>
			<line class="st14" x1="37.5" y1="40.7" x2="43.1" y2="40.7"/>
			<linearGradient id="SVGID_15_" gradientUnits="userSpaceOnUse" x1="38.6187" y1="42.1958" x2="45.891" y2="42.1958">
				<stop  offset="0" style="stop-color:#808285"/>
				<stop  offset="1" style="stop-color:#D1D3D4"/>
			</linearGradient>
			<line class="st15" x1="38.7" y1="42.2" x2="45.8" y2="42.2"/>
			<linearGradient id="SVGID_16_" gradientUnits="userSpaceOnUse" x1="39.1458" y1="42.9335" x2="43.3332" y2="42.9335">
				<stop  offset="0" style="stop-color:#808285"/>
				<stop  offset="1" style="stop-color:#D1D3D4"/>
			</linearGradient>
			<line class="st16" x1="39.2" y1="42.9" x2="43.3" y2="42.9"/>
			<linearGradient id="SVGID_17_" gradientUnits="userSpaceOnUse" x1="39.1574" y1="43.1855" x2="44.8956" y2="43.1855">
				<stop  offset="0" style="stop-color:#808285"/>
				<stop  offset="1" style="stop-color:#D1D3D4"/>
			</linearGradient>
			<line class="st17" x1="39.2" y1="43.2" x2="44.8" y2="43.2"/>
			<linearGradient id="SVGID_18_" gradientUnits="userSpaceOnUse" x1="38.9568" y1="42.6116" x2="47.1511" y2="42.6116">
				<stop  offset="0" style="stop-color:#808285"/>
				<stop  offset="1" style="stop-color:#D1D3D4"/>
			</linearGradient>
			<line class="st18" x1="39" y1="42.6" x2="47.1" y2="42.6"/>
		</g>
		<g>
			<linearGradient id="SVGID_19_" gradientUnits="userSpaceOnUse" x1="24.4465" y1="41.4391" x2="37.0834" y2="41.4391">
				<stop  offset="0" style="stop-color:#D1D3D4"/>
				<stop  offset="1" style="stop-color:#808285"/>
			</linearGradient>
			<path class="st19" d="M24.5,43H29c1,0,1.9-0.4,2.6-1.1l0.9-0.9c0.7-0.7,1.6-1.1,2.6-1.1h2"/>
			<linearGradient id="SVGID_20_" gradientUnits="userSpaceOnUse" x1="24.131" y1="41.8335" x2="37.2216" y2="41.8335">
				<stop  offset="0" style="stop-color:#D1D3D4"/>
				<stop  offset="1" style="stop-color:#808285"/>
			</linearGradient>
			<path class="st20" d="M24.2,43.3h4.9c1,0,1.9-0.4,2.6-1.1l0.9-0.9c0.7-0.7,1.6-1.1,2.6-1.1h2"/>
			<linearGradient id="SVGID_21_" gradientUnits="userSpaceOnUse" x1="22.9345" y1="42.1951" x2="37.3858" y2="42.1951">
				<stop  offset="0" style="stop-color:#D1D3D4"/>
				<stop  offset="1" style="stop-color:#808285"/>
			</linearGradient>
			<path class="st21" d="M23,43.7h6.2c1,0,1.9-0.4,2.6-1.1l0.9-0.9c0.7-0.7,1.6-1.1,2.6-1.1h2"/>
			<linearGradient id="SVGID_22_" gradientUnits="userSpaceOnUse" x1="23.0726" y1="42.5895" x2="37.524" y2="42.5895">
				<stop  offset="0" style="stop-color:#D1D3D4"/>
				<stop  offset="1" style="stop-color:#808285"/>
			</linearGradient>
			<path class="st22" d="M23.1,44.1h6.2c1,0,1.9-0.4,2.6-1.1l0.9-0.9c0.7-0.7,1.6-1.1,2.6-1.1h2"/>
		</g>
		<linearGradient id="SVGID_23_" gradientUnits="userSpaceOnUse" x1="39.7868" y1="43.9744" x2="60.5" y2="43.9744">
			<stop  offset="0" style="stop-color:#D1D3D4"/>
			<stop  offset="1" style="stop-color:#808285"/>
		</linearGradient>
		<polygon class="st23" points="39.8,43.5 60.5,44.1 60.5,44.4 40.2,44 		"/>
		<path class="st24" d="M38.2,43.7l0.6,0.6l16.1,0.4l-13.6,1.4l0.4,0.5l5.4-0.3l13.1-1.9l0.1-0.1C60.3,44.2,38.9,43.7,38.2,43.7z"/>
		<linearGradient id="SVGID_24_" gradientUnits="userSpaceOnUse" x1="34.1944" y1="41.6608" x2="60.2302" y2="45.9696">
			<stop  offset="0" style="stop-color:#D1D3D4"/>
			<stop  offset="1" style="stop-color:#808285"/>
		</linearGradient>
		<path class="st25" d="M35.4,37.6l-0.5-0.1l6.2,8.4c0.7,0.9,1.8,1.5,3,1.6l0,0c0.3,0,0.6,0,0.8-0.1l15.6-3.1l-0.4-0.5l-15,2.3
			c0,0-2.2,0.5-3.3-0.6C40.7,44.4,35.4,37.6,35.4,37.6z"/>
		<path class="st24" d="M34.9,37.6V38l4.7,8.8c0.1,0.2,0.3,0.3,0.5,0.4l1.3,0.2c0.3,0,0.5-0.3,0.4-0.6L34.9,37.6"/>
		<polygon class="st26" points="36.7,40.5 38.4,43.4 38.8,43.4 		"/>
		<polygon class="st26" points="38.8,44.2 39.9,46.3 40.8,46.3 39.3,44.2 		"/>
		<linearGradient id="SVGID_25_" gradientUnits="userSpaceOnUse" x1="3.5041" y1="43.9744" x2="23.9702" y2="43.9744">
			<stop  offset="0" style="stop-color:#D1D3D4"/>
			<stop  offset="1" style="stop-color:#808285"/>
		</linearGradient>
		<polygon class="st27" points="24,43.5 3.5,44.1 3.5,44.4 23.5,44 		"/>
		<path class="st24" d="M25.8,43.7l-0.6,0.6L9.1,44.6l13.6,1.4l-0.4,0.5L17,46.3L3.8,44.3l-0.1-0.1C3.7,44.2,25.2,43.7,25.8,43.7z"
			/>
		<linearGradient id="SVGID_26_" gradientUnits="userSpaceOnUse" x1="26.421" y1="42.2171" x2="10.9226" y2="44.8254">
			<stop  offset="0" style="stop-color:#D1D3D4"/>
			<stop  offset="1" style="stop-color:#808285"/>
		</linearGradient>
		<path class="st28" d="M28.6,37.6l0.5-0.1l-6.2,8.4c-0.7,0.9-1.8,1.5-3,1.6h0c-0.3,0-0.6,0-0.8-0.1L3.5,44.3l0.4-0.5l15,2.3
			c0,0,2.2,0.5,3.3-0.6C23.3,44.4,28.6,37.6,28.6,37.6z"/>
		<path class="st24" d="M29.1,37.6V38c0,0,0,0,0,0l-4.6,8.7c-0.1,0.2-0.3,0.4-0.6,0.4l-1.2,0.2c-0.3,0.1-0.6-0.3-0.4-0.6L29.1,37.6"
			/>
		<polygon class="st26" points="27.3,40.5 25.6,43.4 25.2,43.4 		"/>
		<polygon class="st26" points="25.2,44.2 24.1,46.3 23.2,46.3 24.7,44.2 		"/>
		<polygon class="st0" points="32,41.2 30.9,42.2 32.1,43.1 33,42.2 		"/>
		<linearGradient id="SVGID_27_" gradientUnits="userSpaceOnUse" x1="26.8222" y1="41.6614" x2="38.1996" y2="41.6614">
			<stop  offset="0" style="stop-color:#D1D3D4"/>
			<stop  offset="1" style="stop-color:#808285"/>
		</linearGradient>
		<path class="st29" d="M26.9,41l3.6,0c0.6,0,1.1-0.1,1.5,0.3l0.5,0.5c0.4,0.4,1,0.5,1.5,0.5l4,0"/>
		<linearGradient id="SVGID_28_" gradientUnits="userSpaceOnUse" x1="26.6254" y1="41.9545" x2="38.4316" y2="41.9545">
			<stop  offset="0" style="stop-color:#D1D3D4"/>
			<stop  offset="1" style="stop-color:#808285"/>
		</linearGradient>
		<path class="st30" d="M26.7,41.3l3.5,0c0.6,0,1.1-0.1,1.5,0.3l0.5,0.5c0.4,0.4,1,0.5,1.5,0.5h4.6"/>
		<linearGradient id="SVGID_29_" gradientUnits="userSpaceOnUse" x1="26.4086" y1="42.2379" x2="38.5955" y2="42.2379">
			<stop  offset="0" style="stop-color:#D1D3D4"/>
			<stop  offset="1" style="stop-color:#808285"/>
		</linearGradient>
		<path class="st31" d="M26.5,41.6l3.3,0c0.6,0,1.1-0.1,1.5,0.3l0.5,0.5c0.4,0.4,1,0.5,1.5,0.5h5.1"/>
		<linearGradient id="SVGID_30_" gradientUnits="userSpaceOnUse" x1="26.1916" y1="42.531" x2="38.8349" y2="42.531">
			<stop  offset="0" style="stop-color:#D1D3D4"/>
			<stop  offset="1" style="stop-color:#808285"/>
		</linearGradient>
		<path class="st32" d="M26.3,41.9l3.2,0c0.6,0,1.1-0.1,1.5,0.3l0.5,0.5c0.4,0.4,1,0.5,1.5,0.5h5.7"/>
		<polygon class="st24" points="37.2,41.1 37.4,40.9 39.2,43.4 38.8,43.4 		"/>
		<polygon class="st24" points="25.8,42.1 26.1,42.2 27.1,40.7 26.9,40.6 		"/>
		
			<linearGradient id="SVGID_31_" gradientUnits="userSpaceOnUse" x1="42.2155" y1="36.8539" x2="22.8399" y2="36.8539" gradientTransform="matrix(0.9993 3.855611e-02 -3.855611e-02 0.9993 -6.271227e-02 -1.1825)">
			<stop  offset="0" style="stop-color:#E6E7E8"/>
			<stop  offset="1" style="stop-color:#808285"/>
		</linearGradient>
		<path class="st33" d="M23.5,38.6c0,0,8.6-8.2,16.5-0.2C40.1,38.4,33.8,31.3,23.5,38.6z"/>
		
			<linearGradient id="SVGID_32_" gradientUnits="userSpaceOnUse" x1="25.2895" y1="36.6919" x2="41.9296" y2="36.6919" gradientTransform="matrix(0.9993 3.855611e-02 -3.855611e-02 0.9993 -6.271227e-02 -1.1825)">
			<stop  offset="0" style="stop-color:#808285"/>
			<stop  offset="0.1683" style="stop-color:#86888B"/>
			<stop  offset="0.3872" style="stop-color:#96989A"/>
			<stop  offset="0.634" style="stop-color:#B1B2B4"/>
			<stop  offset="0.8994" style="stop-color:#D6D7D8"/>
			<stop  offset="1" style="stop-color:#E6E7E8"/>
		</linearGradient>
		<path class="st34" d="M23.7,38.5c0,0,8.1-8.5,16.7-0.1C40.4,38.5,33.3,30.8,23.7,38.5z"/>
	</g>
</g>
</svg>
