<?xml version="1.0" encoding="utf-8"?>
<!-- Generator: Adobe Illustrator 21.0.0, SVG Export Plug-In . SVG Version: 6.00 Build 0)  -->
<svg version="1.1" baseProfile="basic" id="Layer_1"
	 xmlns="http://www.w3.org/2000/svg" xmlns:xlink="http://www.w3.org/1999/xlink" x="0px" y="0px" viewBox="0 0 169.1 112"
	 xml:space="preserve">
<style type="text/css">
	.st0{clip-path:url(#SVGID_2_);}
	.st1{opacity:0.2;fill:url(#SVGID_3_);}
	.st2{opacity:0.2;fill:url(#SVGID_4_);}
	.st3{fill:none;stroke:url(#SVGID_5_);stroke-linecap:round;stroke-miterlimit:10;}
	.st4{fill:none;stroke:url(#SVGID_6_);stroke-linecap:round;stroke-miterlimit:10;}
	.st5{fill:none;stroke:url(#SVGID_7_);stroke-linecap:round;stroke-miterlimit:10;}
	.st6{fill:none;stroke:url(#SVGID_8_);stroke-linecap:round;stroke-miterlimit:10;}
	.st7{fill:none;stroke:url(#SVGID_9_);stroke-linecap:round;stroke-miterlimit:10;}
	.st8{fill:none;stroke:url(#SVGID_10_);stroke-linecap:round;stroke-miterlimit:10;}
	.st9{fill:none;stroke:url(#SVGID_11_);stroke-linecap:round;stroke-miterlimit:10;}
	.st10{fill:none;stroke:url(#SVGID_12_);stroke-linecap:round;stroke-miterlimit:10;}
	.st11{fill:none;stroke:url(#SVGID_13_);stroke-linecap:round;stroke-miterlimit:10;}
	.st12{fill:none;stroke:url(#SVGID_14_);stroke-linecap:round;stroke-miterlimit:10;}
	.st13{fill:none;stroke:url(#SVGID_15_);stroke-linecap:round;stroke-miterlimit:10;}
	.st14{fill:none;stroke:url(#SVGID_16_);stroke-linecap:round;stroke-miterlimit:10;}
	.st15{fill:none;stroke:url(#SVGID_17_);stroke-linecap:round;stroke-miterlimit:10;}
	.st16{fill:none;stroke:url(#SVGID_18_);stroke-linecap:round;stroke-miterlimit:10;}
	.st17{fill:none;stroke:url(#SVGID_19_);stroke-linecap:round;stroke-miterlimit:10;}
	.st18{fill:none;stroke:url(#SVGID_20_);stroke-linecap:round;stroke-miterlimit:10;}
	.st19{fill:none;stroke:url(#SVGID_21_);stroke-linecap:round;stroke-miterlimit:10;}
	.st20{fill:none;stroke:url(#SVGID_22_);stroke-linecap:round;stroke-miterlimit:10;}
	.st21{fill:#B2CEB2;}
	.st22{fill:#0A300A;}
	.st23{fill:url(#SVGID_23_);}
	.st24{fill:#F9F9F9;}
	.st25{fill:url(#SVGID_24_);}
	.st26{fill:none;stroke:url(#SVGID_25_);stroke-linecap:round;stroke-miterlimit:10;}
	.st27{fill:none;stroke:url(#SVGID_26_);stroke-linecap:round;stroke-miterlimit:10;}
	.st28{fill:none;stroke:url(#SVGID_27_);stroke-linecap:round;stroke-miterlimit:10;}
	.st29{fill:none;stroke:url(#SVGID_28_);stroke-linecap:round;stroke-miterlimit:10;}
	.st30{fill:url(#SVGID_29_);}
	.st31{fill:url(#SVGID_30_);}
</style>
<g>
	<defs>
		<rect id="SVGID_1_" width="169.1" height="112"/>
	</defs>
	<clipPath id="SVGID_2_">
		<use xlink:href="#SVGID_1_"  style="overflow:visible;"/>
	</clipPath>
	<g class="st0">
		
			<linearGradient id="SVGID_3_" gradientUnits="userSpaceOnUse" x1="47.995" y1="110.2196" x2="-50.6628" y2="110.2196" gradientTransform="matrix(0.9993 -3.855612e-02 -2.338771e-02 -0.6061 -0.6211 166.6312)">
			<stop  offset="0" style="stop-color:#229648"/>
			<stop  offset="1" style="stop-color:#E9D042"/>
		</linearGradient>
		<path class="st1" d="M-42.4,95.1c0,0,43.4,24.8,84.1-0.7C41.7,94.4,9,116.9-42.4,95.1z"/>
		
			<linearGradient id="SVGID_4_" gradientUnits="userSpaceOnUse" x1="-38.1897" y1="109.3947" x2="46.5392" y2="109.3947" gradientTransform="matrix(0.9993 -3.855612e-02 -2.338771e-02 -0.6061 -0.6211 166.6312)">
			<stop  offset="0" style="stop-color:#229648"/>
			<stop  offset="1" style="stop-color:#E9D042"/>
		</linearGradient>
		<path class="st2" d="M-41.6,95.4c0,0,40.5,25.7,84.8-1.1C43.2,94.3,6.7,118.5-41.6,95.4z"/>
		<linearGradient id="SVGID_5_" gradientUnits="userSpaceOnUse" x1="37.3125" y1="50.8292" x2="56.903" y2="50.8292">
			<stop  offset="0" style="stop-color:#229648"/>
			<stop  offset="1" style="stop-color:#E9D042"/>
		</linearGradient>
		<line class="st3" x1="37.8" y1="50.8" x2="56.4" y2="50.8"/>
		<linearGradient id="SVGID_6_" gradientUnits="userSpaceOnUse" x1="35.1011" y1="45.8292" x2="80.3542" y2="45.8292">
			<stop  offset="0" style="stop-color:#229648"/>
			<stop  offset="1" style="stop-color:#E9D042"/>
		</linearGradient>
		<line class="st4" x1="35.6" y1="45.8" x2="79.9" y2="45.8"/>
		<linearGradient id="SVGID_7_" gradientUnits="userSpaceOnUse" x1="31.6042" y1="42.8333" x2="69.6875" y2="42.8333">
			<stop  offset="0" style="stop-color:#229648"/>
			<stop  offset="1" style="stop-color:#E9D042"/>
		</linearGradient>
		<line class="st5" x1="32.1" y1="42.8" x2="69.2" y2="42.8"/>
		<linearGradient id="SVGID_8_" gradientUnits="userSpaceOnUse" x1="35.4375" y1="48.2206" x2="73.4375" y2="48.2206">
			<stop  offset="0" style="stop-color:#229648"/>
			<stop  offset="1" style="stop-color:#E9D042"/>
		</linearGradient>
		<line class="st6" x1="35.9" y1="48.2" x2="72.9" y2="48.2"/>
		
			<linearGradient id="SVGID_9_" gradientUnits="userSpaceOnUse" x1="43.3333" y1="59.5846" x2="91.4375" y2="59.5846" gradientTransform="matrix(1 0 0 -1 -7.357576e-07 117.8138)">
			<stop  offset="0" style="stop-color:#229648"/>
			<stop  offset="1" style="stop-color:#E9D042"/>
		</linearGradient>
		<line class="st7" x1="43.8" y1="58.2" x2="90.9" y2="58.2"/>
		
			<linearGradient id="SVGID_10_" gradientUnits="userSpaceOnUse" x1="46.8194" y1="54.7055" x2="74.5208" y2="54.7055" gradientTransform="matrix(1 0 0 -1 -7.357576e-07 117.8138)">
			<stop  offset="0" style="stop-color:#229648"/>
			<stop  offset="1" style="stop-color:#E9D042"/>
		</linearGradient>
		<line class="st8" x1="47.3" y1="63.1" x2="74" y2="63.1"/>
		
			<linearGradient id="SVGID_11_" gradientUnits="userSpaceOnUse" x1="46.8958" y1="53.0388" x2="84.8542" y2="53.0388" gradientTransform="matrix(1 0 0 -1 -7.357576e-07 117.8138)">
			<stop  offset="0" style="stop-color:#229648"/>
			<stop  offset="1" style="stop-color:#E9D042"/>
		</linearGradient>
		<line class="st9" x1="47.4" y1="64.8" x2="84.4" y2="64.8"/>
		
			<linearGradient id="SVGID_12_" gradientUnits="userSpaceOnUse" x1="45.5695" y1="56.8343" x2="99.7708" y2="56.8343" gradientTransform="matrix(1 0 0 -1 -7.357576e-07 117.8138)">
			<stop  offset="0" style="stop-color:#229648"/>
			<stop  offset="1" style="stop-color:#E9D042"/>
		</linearGradient>
		<line class="st10" x1="46.1" y1="61" x2="99.3" y2="61"/>
		<linearGradient id="SVGID_13_" gradientUnits="userSpaceOnUse" x1="-50.3958" y1="53.2247" x2="33.1875" y2="53.2247">
			<stop  offset="0" style="stop-color:#E9D042"/>
			<stop  offset="1" style="stop-color:#229648"/>
		</linearGradient>
		<path class="st11" d="M-49.9,63.2h29.3c6.4,0,12.5-2.5,17-7l5.9-5.9c4.5-4.5,10.6-7,17-7h13.4"/>
		<linearGradient id="SVGID_14_" gradientUnits="userSpaceOnUse" x1="-52.4822" y1="55.8333" x2="34.1011" y2="55.8333">
			<stop  offset="0" style="stop-color:#E9D042"/>
			<stop  offset="1" style="stop-color:#229648"/>
		</linearGradient>
		<path class="st12" d="M-52,65.8h32.3c6.4,0,12.5-2.5,17-7l5.9-5.9c4.5-4.5,10.6-7,17-7h13.4"/>
		<linearGradient id="SVGID_15_" gradientUnits="userSpaceOnUse" x1="-60.3958" y1="58.2247" x2="35.1875" y2="58.2247">
			<stop  offset="0" style="stop-color:#E9D042"/>
			<stop  offset="1" style="stop-color:#229648"/>
		</linearGradient>
		<path class="st13" d="M-59.9,68.2h41.3c6.4,0,12.5-2.5,17-7l5.9-5.9c4.5-4.5,10.6-7,17-7h13.4"/>
		<linearGradient id="SVGID_16_" gradientUnits="userSpaceOnUse" x1="-59.4822" y1="60.8333" x2="36.1011" y2="60.8333">
			<stop  offset="0" style="stop-color:#E9D042"/>
			<stop  offset="1" style="stop-color:#229648"/>
		</linearGradient>
		<path class="st14" d="M-59,70.8h41.3c6.4,0,12.5-2.5,17-7l5.9-5.9c4.5-4.5,10.6-7,17-7h13.4"/>
		<polygon class="st21" points="51.1,67 188.1,70.6 188.1,73 53.9,70 		"/>
		<path class="st22" d="M40.6,68.3l4,3.7l106.3,2.3l-89.7,9.5l2.3,3.5l35.5-2.1L186,72.3l0.6-0.7C186.6,71.7,44.9,68.4,40.6,68.3z"
			/>
		<linearGradient id="SVGID_17_" gradientUnits="userSpaceOnUse" x1="35.5918" y1="58.2519" x2="130.2585" y2="73.9186">
			<stop  offset="0" style="stop-color:#E9D042"/>
			<stop  offset="1" style="stop-color:#229648"/>
		</linearGradient>
		<path style="fill:url(#SVGID_17_);" d="M22.1,28.1l-3.4-0.7L59.5,83c4.6,6.3,11.9,10.1,19.7,10.3h0c1.9,0.1,3.8-0.1,5.6-0.5
			l103.3-20.5l-2.7-3l-99,15c0,0-14.8,3.4-22-3.9C57.1,73.1,22.1,28.1,22.1,28.1z"/>
		<path class="st22" d="M18.6,27.7v2.8l30.8,58.1c0.7,1.3,1.9,2.1,3.3,2.4l8.4,1.3c2.1,0.3,3.6-2.1,2.3-3.9L18.6,27.3"/>
		<polygon class="st24" points="30.9,47.3 41.9,66.4 44.7,66.4 		"/>
		<polygon class="st24" points="44.3,71.7 51.9,85.2 57.9,85.2 48.1,71.7 		"/>
		<polygon class="st24" points="-0.7,51.8 -7.4,58.2 0,64.4 6.1,58.1 		"/>
		<linearGradient id="SVGID_18_" gradientUnits="userSpaceOnUse" x1="-34.6841" y1="54.695" x2="40.5695" y2="54.695">
			<stop  offset="0" style="stop-color:#E9D042"/>
			<stop  offset="1" style="stop-color:#229648"/>
		</linearGradient>
		<path class="st16" d="M-34.2,50.3l24.1,0.1c3.8,0,7.5-0.5,10.2,2.2l3.1,3.1C6,58.5,9.7,59,13.6,59L40.1,59"/>
		<linearGradient id="SVGID_19_" gradientUnits="userSpaceOnUse" x1="-35.9852" y1="56.6335" x2="42.1042" y2="56.6335">
			<stop  offset="0" style="stop-color:#E9D042"/>
			<stop  offset="1" style="stop-color:#229648"/>
		</linearGradient>
		<path class="st17" d="M-35.5,52.3l23.1,0.1c3.8,0,7.5-0.5,10.2,2.2L1,57.7C3.7,60.5,7.4,61,11.2,61h30.4"/>
		<linearGradient id="SVGID_20_" gradientUnits="userSpaceOnUse" x1="-37.4194" y1="58.5079" x2="43.1875" y2="58.5079">
			<stop  offset="0" style="stop-color:#E9D042"/>
			<stop  offset="1" style="stop-color:#229648"/>
		</linearGradient>
		<path class="st18" d="M-36.9,54.2l22.1,0.1c3.8,0,7.5-0.5,10.2,2.2l3.1,3.1c2.7,2.7,6.4,3.2,10.2,3.2h33.9"/>
		<linearGradient id="SVGID_21_" gradientUnits="userSpaceOnUse" x1="-38.8542" y1="60.4463" x2="44.7708" y2="60.4463">
			<stop  offset="0" style="stop-color:#E9D042"/>
			<stop  offset="1" style="stop-color:#229648"/>
		</linearGradient>
		<path class="st19" d="M-38.4,56.1l21.2,0.1c3.8,0,7.5-0.5,10.2,2.2l3.1,3.1c2.7,2.7,6.4,3.2,10.2,3.2h37.8"/>
		<polygon class="st22" points="33.6,51 35.1,49.9 47.3,66.4 44.7,66.4 		"/>
		
			<linearGradient id="SVGID_22_" gradientUnits="userSpaceOnUse" x1="57.1736" y1="23.4495" x2="-70.9687" y2="23.4495" gradientTransform="matrix(0.9993 3.855611e-02 -3.855611e-02 0.9993 0.8782 2.735841e-02)">
			<stop  offset="0" style="stop-color:#229648"/>
			<stop  offset="1" style="stop-color:#E9D042"/>
		</linearGradient>
		<path style="fill:url(#SVGID_22_);" d="M-56.3,34.7c0,0,57.2-54.4,109.4-1.3C53,33.4,11.2-13.6-56.3,34.7z"/>
		
			<linearGradient id="SVGID_23_" gradientUnits="userSpaceOnUse" x1="-54.7679" y1="22.3781" x2="55.2826" y2="22.3781" gradientTransform="matrix(0.9993 3.855611e-02 -3.855611e-02 0.9993 0.8782 2.735841e-02)">
			<stop  offset="0" style="stop-color:#229648"/>
			<stop  offset="1" style="stop-color:#E9D042"/>
		</linearGradient>
		<path class="st23" d="M-55.2,34c0,0,53.5-56.4,110.2-0.5C54.9,33.5,8.3-16.9-55.2,34z"/>
	</g>
</g>
</svg>
