<?xml version="1.0" encoding="utf-8"?>
<!-- Generator: Adobe Illustrator 21.0.0, SVG Export Plug-In . SVG Version: 6.00 Build 0)  -->
<svg version="1.1" baseProfile="basic" id="Layer_1"
	 xmlns="http://www.w3.org/2000/svg" xmlns:xlink="http://www.w3.org/1999/xlink" x="0px" y="0px" viewBox="0 0 168.5 112"
	 xml:space="preserve">
<style type="text/css">
	.st0{clip-path:url(#SVGID_2_);}
	.st1{opacity:0.2;fill:url(#SVGID_3_);}
	.st2{opacity:0.2;fill:url(#SVGID_4_);}
	.st3{fill:none;stroke:url(#SVGID_5_);stroke-linecap:round;stroke-miterlimit:10;}
	.st4{fill:none;stroke:url(#SVGID_6_);stroke-linecap:round;stroke-miterlimit:10;}
	.st5{fill:none;stroke:url(#SVGID_7_);stroke-linecap:round;stroke-miterlimit:10;}
	.st6{fill:none;stroke:url(#SVGID_8_);stroke-linecap:round;stroke-miterlimit:10;}
	.st7{fill:none;stroke:url(#SVGID_9_);stroke-linecap:round;stroke-miterlimit:10;}
	.st8{fill:none;stroke:url(#SVGID_10_);stroke-linecap:round;stroke-miterlimit:10;}
	.st9{fill:none;stroke:url(#SVGID_11_);stroke-linecap:round;stroke-miterlimit:10;}
	.st10{fill:none;stroke:url(#SVGID_12_);stroke-linecap:round;stroke-miterlimit:10;}
	.st11{fill:none;stroke:url(#SVGID_13_);stroke-linecap:round;stroke-miterlimit:10;}
	.st12{fill:none;stroke:url(#SVGID_14_);stroke-linecap:round;stroke-miterlimit:10;}
	.st13{fill:none;stroke:url(#SVGID_15_);stroke-linecap:round;stroke-miterlimit:10;}
	.st14{fill:none;stroke:url(#SVGID_16_);stroke-linecap:round;stroke-miterlimit:10;}
	.st15{fill:none;stroke:url(#SVGID_17_);stroke-linecap:round;stroke-miterlimit:10;}
	.st16{fill:none;stroke:url(#SVGID_18_);stroke-linecap:round;stroke-miterlimit:10;}
	.st17{fill:none;stroke:url(#SVGID_19_);stroke-linecap:round;stroke-miterlimit:10;}
	.st18{fill:none;stroke:url(#SVGID_20_);stroke-linecap:round;stroke-miterlimit:10;}
	.st19{fill:none;stroke:url(#SVGID_21_);stroke-linecap:round;stroke-miterlimit:10;}
	.st20{fill:none;stroke:url(#SVGID_22_);stroke-linecap:round;stroke-miterlimit:10;}
	.st21{fill:#B2CEB2;}
	.st22{fill:#0A300A;}
	.st23{fill:url(#SVGID_23_);}
	.st24{fill:#F9F9F9;}
	.st25{fill:url(#SVGID_24_);}
	.st26{fill:none;stroke:url(#SVGID_25_);stroke-linecap:round;stroke-miterlimit:10;}
	.st27{fill:none;stroke:url(#SVGID_26_);stroke-linecap:round;stroke-miterlimit:10;}
	.st28{fill:none;stroke:url(#SVGID_27_);stroke-linecap:round;stroke-miterlimit:10;}
	.st29{fill:none;stroke:url(#SVGID_28_);stroke-linecap:round;stroke-miterlimit:10;}
	.st30{fill:url(#SVGID_29_);}
	.st31{fill:url(#SVGID_30_);}
</style>
<g>
	<defs>
		<rect id="SVGID_1_" width="168.5" height="112"/>
	</defs>
	<clipPath id="SVGID_2_">
		<use xlink:href="#SVGID_1_"  style="overflow:visible;"/>
	</clipPath>
	<g class="st0">
		
			<linearGradient id="SVGID_3_" gradientUnits="userSpaceOnUse" x1="216.6383" y1="110.2308" x2="118.0972" y2="110.2308" gradientTransform="matrix(0.9993 -3.855612e-02 -2.338771e-02 -0.6061 -0.4956 173.1432)">
			<stop  offset="0" style="stop-color:#229648"/>
			<stop  offset="1" style="stop-color:#E9D042"/>
		</linearGradient>
		<path class="st1" d="M126.3,95.1c0,0,43.3,24.8,84-0.7C210.4,94.4,177.6,116.9,126.3,95.1z"/>
		
			<linearGradient id="SVGID_4_" gradientUnits="userSpaceOnUse" x1="130.5556" y1="109.406" x2="215.1841" y2="109.406" gradientTransform="matrix(0.9993 -3.855612e-02 -2.338771e-02 -0.6061 -0.4956 173.1432)">
			<stop  offset="0" style="stop-color:#229648"/>
			<stop  offset="1" style="stop-color:#E9D042"/>
		</linearGradient>
		<path class="st2" d="M127.2,95.4c0,0,40.5,25.7,84.7-1.1C211.8,94.3,175.4,118.5,127.2,95.4z"/>
		<linearGradient id="SVGID_5_" gradientUnits="userSpaceOnUse" x1="84.4826" y1="63.25" x2="131.2617" y2="63.25">
			<stop  offset="0" style="stop-color:#229648"/>
			<stop  offset="1" style="stop-color:#E9D042"/>
		</linearGradient>
		<line class="st3" x1="130.8" y1="63.3" x2="85" y2="63.3"/>
		<linearGradient id="SVGID_6_" gradientUnits="userSpaceOnUse" x1="96.5516" y1="65.6667" x2="129.4305" y2="65.6667">
			<stop  offset="0" style="stop-color:#229648"/>
			<stop  offset="1" style="stop-color:#E9D042"/>
		</linearGradient>
		<line class="st4" x1="128.9" y1="65.7" x2="97.1" y2="65.7"/>
		<linearGradient id="SVGID_7_" gradientUnits="userSpaceOnUse" x1="104.4589" y1="50.3491" x2="132.3202" y2="50.3491">
			<stop  offset="0" style="stop-color:#229648"/>
			<stop  offset="1" style="stop-color:#E9D042"/>
		</linearGradient>
		<line class="st5" x1="131.8" y1="50.3" x2="105" y2="50.3"/>
		<linearGradient id="SVGID_8_" gradientUnits="userSpaceOnUse" x1="99.1319" y1="52.2875" x2="128.5868" y2="52.2875">
			<stop  offset="0" style="stop-color:#229648"/>
			<stop  offset="1" style="stop-color:#E9D042"/>
		</linearGradient>
		<line class="st6" x1="128.1" y1="52.3" x2="99.6" y2="52.3"/>
		<linearGradient id="SVGID_9_" gradientUnits="userSpaceOnUse" x1="90.9749" y1="54.1619" x2="127.796" y2="54.1619">
			<stop  offset="0" style="stop-color:#229648"/>
			<stop  offset="1" style="stop-color:#E9D042"/>
		</linearGradient>
		<line class="st7" x1="127.3" y1="54.2" x2="91.5" y2="54.2"/>
		<linearGradient id="SVGID_10_" gradientUnits="userSpaceOnUse" x1="101.9619" y1="56.1004" x2="125.7152" y2="56.1004">
			<stop  offset="0" style="stop-color:#229648"/>
			<stop  offset="1" style="stop-color:#E9D042"/>
		</linearGradient>
		<line class="st8" x1="125.2" y1="56.1" x2="102.5" y2="56.1"/>
		<linearGradient id="SVGID_11_" gradientUnits="userSpaceOnUse" x1="118.3591" y1="53.2247" x2="201.8447" y2="53.2247">
			<stop  offset="0" style="stop-color:#E9D042"/>
			<stop  offset="1" style="stop-color:#229648"/>
		</linearGradient>
		<path class="st9" d="M118.9,63.2h29.3c6.4,0,12.5-2.5,17-7l5.9-5.9c4.5-4.5,10.6-7,17-7h13.4"/>
		<linearGradient id="SVGID_12_" gradientUnits="userSpaceOnUse" x1="116.2752" y1="55.8333" x2="202.7572" y2="55.8333">
			<stop  offset="0" style="stop-color:#E9D042"/>
			<stop  offset="1" style="stop-color:#229648"/>
		</linearGradient>
		<path class="st10" d="M116.8,65.8H149c6.4,0,12.5-2.5,17-7l5.9-5.9c4.5-4.5,10.6-7,17-7h13.4"/>
		<linearGradient id="SVGID_13_" gradientUnits="userSpaceOnUse" x1="108.371" y1="58.2247" x2="203.8423" y2="58.2247">
			<stop  offset="0" style="stop-color:#E9D042"/>
			<stop  offset="1" style="stop-color:#229648"/>
		</linearGradient>
		<path class="st11" d="M108.9,68.2h41.2c6.4,0,12.5-2.5,17-7l5.9-5.9c4.5-4.5,10.6-7,17-7h13.4"/>
		<linearGradient id="SVGID_14_" gradientUnits="userSpaceOnUse" x1="109.2835" y1="60.8333" x2="204.7549" y2="60.8333">
			<stop  offset="0" style="stop-color:#E9D042"/>
			<stop  offset="1" style="stop-color:#229648"/>
		</linearGradient>
		<path class="st12" d="M109.8,70.8H151c6.4,0,12.5-2.5,17-7l5.9-5.9c4.5-4.5,10.6-7,17-7h13.4"/>
		<polygon class="st21" points="115.2,67 -20,70.6 -20,73 112.4,70 		"/>
		<path class="st22" d="M127.3,68.3l-4,3.7L17.1,74.3l89.6,9.5l-2.3,3.5l-35.5-2.1l-86.8-12.8l-0.6-0.7
			C-18.5,71.7,123,68.4,127.3,68.3z"/>
		<linearGradient id="SVGID_15_" gradientUnits="userSpaceOnUse" x1="131.4118" y1="58.3717" x2="29.028" y2="75.6022">
			<stop  offset="0" style="stop-color:#E9D042"/>
			<stop  offset="1" style="stop-color:#229648"/>
		</linearGradient>
		<path style="fill:url(#SVGID_15_);" d="M145.8,28.1l3.4-0.7L108.4,83c-4.6,6.3-11.8,10.1-19.6,10.3h0c-1.9,0.1-3.7-0.1-5.6-0.5
			L-20,72.4l2.7-3l98.9,15c0,0,14.7,3.4,22-3.9C110.9,73.1,145.8,28.1,145.8,28.1z"/>
		<path class="st22" d="M149.3,27.7v2.7c0,0,0,0,0,0.1l-30.6,57.7c-0.8,1.5-2.2,2.5-3.8,2.7l-7.8,1.2c-2.2,0.3-3.7-2.1-2.4-3.9
			l44.6-60.8"/>
		<polygon class="st24" points="137,47.3 126,66.4 123.2,66.4 		"/>
		<polygon class="st24" points="123.6,71.7 116,85.2 110.1,85.2 119.8,71.7 		"/>
		<polygon class="st24" points="168,51.8 161.3,58.2 168.7,64.4 174.8,58.1 		"/>
		<linearGradient id="SVGID_16_" gradientUnits="userSpaceOnUse" x1="134.0523" y1="54.695" x2="209.218" y2="54.695">
			<stop  offset="0" style="stop-color:#E9D042"/>
			<stop  offset="1" style="stop-color:#229648"/>
		</linearGradient>
		<path class="st14" d="M134.6,50.3l24.1,0.1c3.8,0,7.5-0.5,10.2,2.2l3.1,3.1c2.7,2.7,6.4,3.2,10.2,3.2l26.5-0.1"/>
		<linearGradient id="SVGID_17_" gradientUnits="userSpaceOnUse" x1="132.7527" y1="56.6335" x2="210.7508" y2="56.6335">
			<stop  offset="0" style="stop-color:#E9D042"/>
			<stop  offset="1" style="stop-color:#229648"/>
		</linearGradient>
		<path class="st15" d="M133.3,52.3l23.1,0.1c3.8,0,7.5-0.5,10.2,2.2l3.1,3.1c2.7,2.7,6.4,3.2,10.2,3.2h30.3"/>
		<linearGradient id="SVGID_18_" gradientUnits="userSpaceOnUse" x1="131.3202" y1="58.5079" x2="211.8329" y2="58.5079">
			<stop  offset="0" style="stop-color:#E9D042"/>
			<stop  offset="1" style="stop-color:#229648"/>
		</linearGradient>
		<path class="st16" d="M131.8,54.2l22.1,0.1c3.8,0,7.5-0.5,10.2,2.2l3.1,3.1c2.7,2.7,6.4,3.2,10.2,3.2h33.8"/>
		<linearGradient id="SVGID_19_" gradientUnits="userSpaceOnUse" x1="129.8871" y1="60.4463" x2="213.4143" y2="60.4463">
			<stop  offset="0" style="stop-color:#E9D042"/>
			<stop  offset="1" style="stop-color:#229648"/>
		</linearGradient>
		<path class="st17" d="M130.4,56.1l21.2,0.1c3.8,0,7.5-0.5,10.2,2.2l3.1,3.1c2.7,2.7,6.4,3.2,10.2,3.2h37.7"/>
		<polygon class="st22" points="127.3,57.3 129.1,58.2 136.1,48.4 134.6,47.4 		"/>
		
			<linearGradient id="SVGID_20_" gradientUnits="userSpaceOnUse" x1="225.8024" y1="23.456" x2="97.8119" y2="23.456" gradientTransform="matrix(0.9993 3.855611e-02 -3.855611e-02 0.9993 1.0038 -6.4846)">
			<stop  offset="0" style="stop-color:#229648"/>
			<stop  offset="1" style="stop-color:#E9D042"/>
		</linearGradient>
		<path style="fill:url(#SVGID_20_);" d="M112.4,34.7c0,0,57.1-54.4,109.2-1.3C221.7,33.4,179.9-13.6,112.4,34.7z"/>
		
			<linearGradient id="SVGID_21_" gradientUnits="userSpaceOnUse" x1="113.9935" y1="22.3846" x2="223.9137" y2="22.3846" gradientTransform="matrix(0.9993 3.855611e-02 -3.855611e-02 0.9993 1.0038 -6.4846)">
			<stop  offset="0" style="stop-color:#229648"/>
			<stop  offset="1" style="stop-color:#E9D042"/>
		</linearGradient>
		<path style="fill:url(#SVGID_21_);" d="M113.5,34c0,0,53.5-56.4,110-0.5C223.5,33.5,177-16.9,113.5,34z"/>
	</g>
</g>
</svg>
