<?xml version="1.0" encoding="utf-8"?>
<!-- Generator: Adobe Illustrator 21.0.0, SVG Export Plug-In . SVG Version: 6.00 Build 0)  -->
<svg version="1.1" baseProfile="basic" id="Layer_1"
	 xmlns="http://www.w3.org/2000/svg" xmlns:xlink="http://www.w3.org/1999/xlink" x="0px" y="0px" viewBox="0 0 338 112"
	 xml:space="preserve">
<style type="text/css">
	.st0{opacity:0.2;fill:url(#SVGID_1_);}
	.st1{opacity:0.2;fill:url(#SVGID_2_);}
	.st2{fill:none;stroke:url(#SVGID_3_);stroke-linecap:round;stroke-miterlimit:10;}
	.st3{fill:none;stroke:url(#SVGID_4_);stroke-linecap:round;stroke-miterlimit:10;}
	.st4{fill:none;stroke:url(#SVGID_5_);stroke-linecap:round;stroke-miterlimit:10;}
	.st5{fill:none;stroke:url(#SVGID_6_);stroke-linecap:round;stroke-miterlimit:10;}
	.st6{fill:none;stroke:url(#SVGID_7_);stroke-linecap:round;stroke-miterlimit:10;}
	.st7{fill:none;stroke:url(#SVGID_8_);stroke-linecap:round;stroke-miterlimit:10;}
	.st8{fill:none;stroke:url(#SVGID_9_);stroke-linecap:round;stroke-miterlimit:10;}
	.st9{fill:none;stroke:url(#SVGID_10_);stroke-linecap:round;stroke-miterlimit:10;}
	.st10{fill:none;stroke:url(#SVGID_11_);stroke-linecap:round;stroke-miterlimit:10;}
	.st11{fill:none;stroke:url(#SVGID_12_);stroke-linecap:round;stroke-miterlimit:10;}
	.st12{fill:none;stroke:url(#SVGID_13_);stroke-linecap:round;stroke-miterlimit:10;}
	.st13{fill:none;stroke:url(#SVGID_14_);stroke-linecap:round;stroke-miterlimit:10;}
	.st14{fill:none;stroke:url(#SVGID_15_);stroke-linecap:round;stroke-miterlimit:10;}
	.st15{fill:none;stroke:url(#SVGID_16_);stroke-linecap:round;stroke-miterlimit:10;}
	.st16{fill:none;stroke:url(#SVGID_17_);stroke-linecap:round;stroke-miterlimit:10;}
	.st17{fill:none;stroke:url(#SVGID_18_);stroke-linecap:round;stroke-miterlimit:10;}
	.st18{fill:none;stroke:url(#SVGID_19_);stroke-linecap:round;stroke-miterlimit:10;}
	.st19{fill:none;stroke:url(#SVGID_20_);stroke-linecap:round;stroke-miterlimit:10;}
	.st20{fill:#B2CEB2;}
	.st21{fill:#0A300A;}
	.st22{fill:url(#SVGID_21_);}
	.st23{fill:#F9F9F9;}
	.st24{fill:url(#SVGID_22_);}
	.st25{fill:none;stroke:url(#SVGID_23_);stroke-linecap:round;stroke-miterlimit:10;}
	.st26{fill:none;stroke:url(#SVGID_24_);stroke-linecap:round;stroke-miterlimit:10;}
	.st27{fill:none;stroke:url(#SVGID_25_);stroke-linecap:round;stroke-miterlimit:10;}
	.st28{fill:none;stroke:url(#SVGID_26_);stroke-linecap:round;stroke-miterlimit:10;}
	.st29{fill:url(#SVGID_27_);}
	.st30{fill:url(#SVGID_28_);}
</style>
<g>
	
		<linearGradient id="SVGID_1_" gradientUnits="userSpaceOnUse" x1="216.8909" y1="110.2196" x2="118.233" y2="110.2196" gradientTransform="matrix(0.9993 -3.855612e-02 -2.338771e-02 -0.6061 -0.4956 173.1432)">
		<stop  offset="0" style="stop-color:#229648"/>
		<stop  offset="1" style="stop-color:#E9D042"/>
	</linearGradient>
	<path class="st0" d="M126.5,95.1c0,0,43.4,24.8,84.1-0.7C210.6,94.4,177.9,116.9,126.5,95.1z"/>
	
		<linearGradient id="SVGID_2_" gradientUnits="userSpaceOnUse" x1="130.7062" y1="109.3947" x2="215.435" y2="109.3947" gradientTransform="matrix(0.9993 -3.855612e-02 -2.338771e-02 -0.6061 -0.4956 173.1432)">
		<stop  offset="0" style="stop-color:#229648"/>
		<stop  offset="1" style="stop-color:#E9D042"/>
	</linearGradient>
	<path class="st1" d="M127.3,95.4c0,0,40.5,25.7,84.8-1.1C212.1,94.3,175.6,118.5,127.3,95.4z"/>
</g>
<g>
	<linearGradient id="SVGID_3_" gradientUnits="userSpaceOnUse" x1="84.5833" y1="63.25" x2="131.4167" y2="63.25">
		<stop  offset="0" style="stop-color:#229648"/>
		<stop  offset="1" style="stop-color:#E9D042"/>
	</linearGradient>
	<line class="st2" x1="130.9" y1="63.3" x2="85.1" y2="63.3"/>
	<linearGradient id="SVGID_4_" gradientUnits="userSpaceOnUse" x1="96.6667" y1="65.6667" x2="129.5833" y2="65.6667">
		<stop  offset="0" style="stop-color:#229648"/>
		<stop  offset="1" style="stop-color:#E9D042"/>
	</linearGradient>
	<line class="st3" x1="129.1" y1="65.7" x2="97.2" y2="65.7"/>
	<linearGradient id="SVGID_5_" gradientUnits="userSpaceOnUse" x1="104.5833" y1="50.3491" x2="132.4765" y2="50.3491">
		<stop  offset="0" style="stop-color:#229648"/>
		<stop  offset="1" style="stop-color:#E9D042"/>
	</linearGradient>
	<line class="st4" x1="132" y1="50.3" x2="105.1" y2="50.3"/>
	<linearGradient id="SVGID_6_" gradientUnits="userSpaceOnUse" x1="99.25" y1="52.2875" x2="128.7386" y2="52.2875">
		<stop  offset="0" style="stop-color:#229648"/>
		<stop  offset="1" style="stop-color:#E9D042"/>
	</linearGradient>
	<line class="st5" x1="128.2" y1="52.3" x2="99.8" y2="52.3"/>
	<linearGradient id="SVGID_7_" gradientUnits="userSpaceOnUse" x1="91.0833" y1="54.1619" x2="127.9469" y2="54.1619">
		<stop  offset="0" style="stop-color:#229648"/>
		<stop  offset="1" style="stop-color:#E9D042"/>
	</linearGradient>
	<line class="st6" x1="127.4" y1="54.2" x2="91.6" y2="54.2"/>
	<linearGradient id="SVGID_8_" gradientUnits="userSpaceOnUse" x1="102.0833" y1="56.1004" x2="125.8636" y2="56.1004">
		<stop  offset="0" style="stop-color:#229648"/>
		<stop  offset="1" style="stop-color:#E9D042"/>
	</linearGradient>
	<line class="st7" x1="125.4" y1="56.1" x2="102.6" y2="56.1"/>
</g>
<g>
	<linearGradient id="SVGID_9_" gradientUnits="userSpaceOnUse" x1="206.2083" y1="50.8292" x2="225.7988" y2="50.8292">
		<stop  offset="0" style="stop-color:#229648"/>
		<stop  offset="1" style="stop-color:#E9D042"/>
	</linearGradient>
	<line class="st8" x1="206.7" y1="50.8" x2="225.3" y2="50.8"/>
	<linearGradient id="SVGID_10_" gradientUnits="userSpaceOnUse" x1="203.997" y1="45.8292" x2="249.25" y2="45.8292">
		<stop  offset="0" style="stop-color:#229648"/>
		<stop  offset="1" style="stop-color:#E9D042"/>
	</linearGradient>
	<line class="st9" x1="204.5" y1="45.8" x2="248.8" y2="45.8"/>
	<linearGradient id="SVGID_11_" gradientUnits="userSpaceOnUse" x1="200.5" y1="42.8333" x2="238.5833" y2="42.8333">
		<stop  offset="0" style="stop-color:#229648"/>
		<stop  offset="1" style="stop-color:#E9D042"/>
	</linearGradient>
	<line class="st10" x1="201" y1="42.8" x2="238.1" y2="42.8"/>
	<linearGradient id="SVGID_12_" gradientUnits="userSpaceOnUse" x1="204.3333" y1="48.2206" x2="242.3333" y2="48.2206">
		<stop  offset="0" style="stop-color:#229648"/>
		<stop  offset="1" style="stop-color:#E9D042"/>
	</linearGradient>
	<line class="st11" x1="204.8" y1="48.2" x2="241.8" y2="48.2"/>
	
		<linearGradient id="SVGID_13_" gradientUnits="userSpaceOnUse" x1="212.2292" y1="59.5846" x2="260.3333" y2="59.5846" gradientTransform="matrix(1 0 0 -1 0 117.8138)">
		<stop  offset="0" style="stop-color:#229648"/>
		<stop  offset="1" style="stop-color:#E9D042"/>
	</linearGradient>
	<line class="st12" x1="212.7" y1="58.2" x2="259.8" y2="58.2"/>
	
		<linearGradient id="SVGID_14_" gradientUnits="userSpaceOnUse" x1="215.7153" y1="54.7055" x2="243.4167" y2="54.7055" gradientTransform="matrix(1 0 0 -1 0 117.8138)">
		<stop  offset="0" style="stop-color:#229648"/>
		<stop  offset="1" style="stop-color:#E9D042"/>
	</linearGradient>
	<line class="st13" x1="216.2" y1="63.1" x2="242.9" y2="63.1"/>
	
		<linearGradient id="SVGID_15_" gradientUnits="userSpaceOnUse" x1="215.7917" y1="53.0388" x2="253.75" y2="53.0388" gradientTransform="matrix(1 0 0 -1 0 117.8138)">
		<stop  offset="0" style="stop-color:#229648"/>
		<stop  offset="1" style="stop-color:#E9D042"/>
	</linearGradient>
	<line class="st14" x1="216.3" y1="64.8" x2="253.3" y2="64.8"/>
	
		<linearGradient id="SVGID_16_" gradientUnits="userSpaceOnUse" x1="214.4654" y1="56.8343" x2="268.6667" y2="56.8343" gradientTransform="matrix(1 0 0 -1 0 117.8138)">
		<stop  offset="0" style="stop-color:#229648"/>
		<stop  offset="1" style="stop-color:#E9D042"/>
	</linearGradient>
	<line class="st15" x1="215" y1="61" x2="268.2" y2="61"/>
</g>
<g>
	<linearGradient id="SVGID_17_" gradientUnits="userSpaceOnUse" x1="118.5" y1="53.2247" x2="202.0833" y2="53.2247">
		<stop  offset="0" style="stop-color:#E9D042"/>
		<stop  offset="1" style="stop-color:#229648"/>
	</linearGradient>
	<path class="st16" d="M119,63.2h29.3c6.4,0,12.5-2.5,17-7l5.9-5.9c4.5-4.5,10.6-7,17-7h13.4"/>
	<linearGradient id="SVGID_18_" gradientUnits="userSpaceOnUse" x1="116.4136" y1="55.8333" x2="202.997" y2="55.8333">
		<stop  offset="0" style="stop-color:#E9D042"/>
		<stop  offset="1" style="stop-color:#229648"/>
	</linearGradient>
	<path class="st17" d="M116.9,65.8h32.3c6.4,0,12.5-2.5,17-7l5.9-5.9c4.5-4.5,10.6-7,17-7h13.4"/>
	<linearGradient id="SVGID_19_" gradientUnits="userSpaceOnUse" x1="108.5" y1="58.2247" x2="204.0833" y2="58.2247">
		<stop  offset="0" style="stop-color:#E9D042"/>
		<stop  offset="1" style="stop-color:#229648"/>
	</linearGradient>
	<path class="st18" d="M109,68.2h41.3c6.4,0,12.5-2.5,17-7l5.9-5.9c4.5-4.5,10.6-7,17-7h13.4"/>
	<linearGradient id="SVGID_20_" gradientUnits="userSpaceOnUse" x1="109.4136" y1="60.8333" x2="204.997" y2="60.8333">
		<stop  offset="0" style="stop-color:#E9D042"/>
		<stop  offset="1" style="stop-color:#229648"/>
	</linearGradient>
	<path class="st19" d="M109.9,70.8h41.3c6.4,0,12.5-2.5,17-7l5.9-5.9c4.5-4.5,10.6-7,17-7h13.4"/>
</g>
<polygon class="st20" points="220,67 356.9,70.6 356.9,73 222.8,70 "/>
<path class="st21" d="M209.5,68.3l4,3.7l106.3,2.3l-89.7,9.5l2.3,3.5l35.5-2.1l86.9-12.8l0.6-0.7C355.5,71.7,213.8,68.4,209.5,68.3z
	"/>
<linearGradient id="SVGID_21_" gradientUnits="userSpaceOnUse" x1="204.4877" y1="58.2519" x2="299.1543" y2="73.9186">
	<stop  offset="0" style="stop-color:#E9D042"/>
	<stop  offset="1" style="stop-color:#229648"/>
</linearGradient>
<path class="st22" d="M190.9,28.1l-3.4-0.7L228.4,83c4.6,6.3,11.9,10.1,19.7,10.3h0c1.9,0.1,3.8-0.1,5.6-0.5l103.3-20.5l-2.7-3
	l-99,15c0,0-14.8,3.4-22-3.9C226,73.1,190.9,28.1,190.9,28.1z"/>
<path class="st21" d="M187.5,27.7v2.8l30.8,58.1c0.7,1.3,1.9,2.1,3.3,2.4l8.4,1.3c2.1,0.3,3.6-2.1,2.3-3.9l-44.8-60.9"/>
<polygon class="st23" points="199.8,47.3 210.8,66.4 213.6,66.4 "/>
<polygon class="st23" points="213.2,71.7 220.8,85.2 226.8,85.2 217,71.7 "/>
<polygon class="st20" points="115.4,67 -20,70.6 -20,73 112.5,70 "/>
<path class="st21" d="M127.4,68.3l-4,3.7L17.1,74.3l89.7,9.5l-2.3,3.5L69,85.2l-86.9-12.8l-0.6-0.7
	C-18.5,71.7,123.2,68.4,127.4,68.3z"/>
<linearGradient id="SVGID_22_" gradientUnits="userSpaceOnUse" x1="131.5623" y1="58.3705" x2="29.0624" y2="75.6205">
	<stop  offset="0" style="stop-color:#E9D042"/>
	<stop  offset="1" style="stop-color:#229648"/>
</linearGradient>
<path class="st24" d="M146,28.1l3.4-0.7L108.6,83c-4.6,6.3-11.9,10.1-19.7,10.3h0c-1.9,0.1-3.8-0.1-5.6-0.5L-20,72.4l2.7-3l99,15
	c0,0,14.8,3.4,22-3.9C111,73.1,146,28.1,146,28.1z"/>
<path class="st21" d="M149.4,27.7v2.7c0,0,0,0,0,0.1l-30.6,57.7c-0.8,1.5-2.2,2.5-3.8,2.7l-7.8,1.2c-2.2,0.3-3.7-2.1-2.4-3.9
	l44.6-60.8"/>
<polygon class="st23" points="137.1,47.3 126.2,66.4 123.4,66.4 "/>
<polygon class="st23" points="123.8,71.7 116.1,85.2 110.2,85.2 119.9,71.7 "/>
<polygon class="st23" points="168.2,51.8 161.5,58.2 168.9,64.4 175,58.1 "/>
<linearGradient id="SVGID_23_" gradientUnits="userSpaceOnUse" x1="134.2117" y1="54.695" x2="209.4654" y2="54.695">
	<stop  offset="0" style="stop-color:#E9D042"/>
	<stop  offset="1" style="stop-color:#229648"/>
</linearGradient>
<path class="st25" d="M134.7,50.3l24.1,0.1c3.8,0,7.5-0.5,10.2,2.2l3.1,3.1c2.7,2.7,6.4,3.2,10.2,3.2L209,59"/>
<linearGradient id="SVGID_24_" gradientUnits="userSpaceOnUse" x1="132.9106" y1="56.6335" x2="211" y2="56.6335">
	<stop  offset="0" style="stop-color:#E9D042"/>
	<stop  offset="1" style="stop-color:#229648"/>
</linearGradient>
<path class="st26" d="M133.4,52.3l23.1,0.1c3.8,0,7.5-0.5,10.2,2.2l3.1,3.1c2.7,2.7,6.4,3.2,10.2,3.2h30.4"/>
<linearGradient id="SVGID_25_" gradientUnits="userSpaceOnUse" x1="131.4765" y1="58.5079" x2="212.0833" y2="58.5079">
	<stop  offset="0" style="stop-color:#E9D042"/>
	<stop  offset="1" style="stop-color:#229648"/>
</linearGradient>
<path class="st27" d="M132,54.2l22.1,0.1c3.8,0,7.5-0.5,10.2,2.2l3.1,3.1c2.7,2.7,6.4,3.2,10.2,3.2h33.9"/>
<linearGradient id="SVGID_26_" gradientUnits="userSpaceOnUse" x1="130.0417" y1="60.4463" x2="213.6667" y2="60.4463">
	<stop  offset="0" style="stop-color:#E9D042"/>
	<stop  offset="1" style="stop-color:#229648"/>
</linearGradient>
<path class="st28" d="M130.5,56.1l21.2,0.1c3.8,0,7.5-0.5,10.2,2.2l3.1,3.1c2.7,2.7,6.4,3.2,10.2,3.2h37.8"/>
<polygon class="st21" points="202.5,51 204,49.9 216.2,66.4 213.6,66.4 "/>
<polygon class="st21" points="127.4,57.3 129.2,58.2 136.3,48.4 134.7,47.4 "/>
<g>
	
		<linearGradient id="SVGID_27_" gradientUnits="userSpaceOnUse" x1="226.0694" y1="23.4495" x2="97.9271" y2="23.4495" gradientTransform="matrix(0.9993 3.855611e-02 -3.855611e-02 0.9993 1.0038 -6.4846)">
		<stop  offset="0" style="stop-color:#229648"/>
		<stop  offset="1" style="stop-color:#E9D042"/>
	</linearGradient>
	<path class="st29" d="M112.6,34.7c0,0,57.2-54.4,109.4-1.3C221.9,33.4,180.1-13.6,112.6,34.7z"/>
	
		<linearGradient id="SVGID_28_" gradientUnits="userSpaceOnUse" x1="114.128" y1="22.3781" x2="224.1784" y2="22.3781" gradientTransform="matrix(0.9993 3.855611e-02 -3.855611e-02 0.9993 1.0038 -6.4846)">
		<stop  offset="0" style="stop-color:#229648"/>
		<stop  offset="1" style="stop-color:#E9D042"/>
	</linearGradient>
	<path class="st30" d="M113.7,34c0,0,53.5-56.4,110.2-0.5C223.8,33.5,177.2-16.9,113.7,34z"/>
</g>
</svg>
